# xmcd
#
# Track frame offsets: 
#        150
#        16145
#        38478
#        52645
#        71368
#        89476
#        107102
#        122140
#        142155
#        162949
#        183962
#        197486
#
# Disc length: 2889 seconds
#
# Revision: 1
# Processed by: cddbd v1.5.2PL0 Copyright (c) Steve Scherf et al.
# Submitted via: ExactAudioCopy v1.1
#
DISCID=960b470c
DTITLE=Paul Thorn - What The Hell Is Goin On?
DYEAR=2012
DGENRE=Country Blues
TTITLE0=Don't Let Me Down Again
TTITLE1=Snake Farm
TTITLE2=Shelter Me Lord
TTITLE3=Shed A Little 
TTITLE4=What The Hell Is Goin' On
TTITLE5=Small Town Talk
TTITLE6=Walk In My Shadow
TTITLE7=Wrong Number
TTITLE8=Bull Mountain Bridge
TTITLE9=Jukin'
TTITLE10=She's Got A Crush On Me
TTITLE11=Take My Love With You
EXTD=
EXTT0=
EXTT1=
EXTT2=
EXTT3=
EXTT4=
EXTT5=
EXTT6=
EXTT7=
EXTT8=
EXTT9=
EXTT10=
EXTT11=
PLAYORDER=
